<?xml version="1.0" standalone="no"?>
<!DOCTYPE svg PUBLIC "-//W3C//DTD SVG 20010904//EN"
 "http://www.w3.org/TR/2001/REC-SVG-20010904/DTD/svg10.dtd">
<svg version="1.0" xmlns="http://www.w3.org/2000/svg"
 width="668.000000pt" height="668.000000pt" viewBox="0 0 668.000000 668.000000"
 preserveAspectRatio="xMidYMid meet">
<metadata>
Created by potrace 1.11, written by Peter Selinger 2001-2013
</metadata>
<g transform="translate(0.000000,668.000000) scale(0.100000,-0.100000)"
fill="#000000" stroke="none">
<path d="M2454 6368 c-3 -10 -7 -30 -10 -45 -2 -16 -7 -39 -10 -53 -3 -13 -7
-40 -10 -60 -2 -19 -6 -46 -9 -60 -13 -64 -16 -78 -35 -192 -13 -73 -16 -77
-76 -101 -119 -46 -302 -143 -454 -240 -52 -34 -97 -64 -100 -67 -3 -3 -43
-35 -90 -72 -448 -350 -774 -832 -936 -1383 -10 -33 -19 -64 -20 -70 -23 -98
-54 -251 -59 -289 -3 -27 -8 -52 -10 -56 -25 -40 -25 -572 0 -711 4 -21 -10
-39 -97 -120 -56 -51 -129 -119 -163 -150 -33 -31 -74 -69 -92 -85 l-32 -28
30 -55 c17 -31 48 -85 69 -121 20 -36 205 -355 410 -710 205 -355 378 -651
384 -657 12 -14 18 -12 330 103 l155 57 43 -35 c295 -238 758 -449 1153 -524
178 -33 340 -48 530 -48 179 0 287 9 470 40 171 28 459 113 615 181 61 27 224
108 250 125 14 9 41 25 60 35 47 25 78 45 191 125 53 37 103 68 110 68 8 0 43
-9 79 -21 36 -11 124 -38 195 -60 72 -23 149 -47 173 -55 23 -8 44 -14 46 -14
3 0 60 96 119 199 11 20 28 50 38 66 11 17 22 37 26 45 6 15 74 130 93 160 6
8 24 40 40 70 17 30 48 84 69 120 37 63 73 126 370 640 77 134 141 249 140
255 0 5 -85 80 -190 165 l-189 155 5 65 c2 36 8 92 12 125 14 117 6 511 -12
585 -2 8 -7 39 -10 69 -4 30 -8 61 -10 70 -2 9 -11 52 -20 96 -38 185 -116
415 -205 603 -45 95 -175 322 -207 362 -6 8 -45 60 -86 115 -252 338 -592 615
-989 808 -76 37 -142 67 -148 67 -16 0 -27 33 -66 205 -41 184 -36 161 -54
248 -10 47 -18 67 -29 68 -9 1 -413 2 -898 3 -841 2 -883 1 -889 -16z"/>
</g>
</svg>
