<?xml version="1.0" standalone="no"?>
<!DOCTYPE svg PUBLIC "-//W3C//DTD SVG 20010904//EN"
 "http://www.w3.org/TR/2001/REC-SVG-20010904/DTD/svg10.dtd">
<svg version="1.0" xmlns="http://www.w3.org/2000/svg"
 width="668.000000pt" height="668.000000pt" viewBox="0 0 668.000000 668.000000"
 preserveAspectRatio="xMidYMid meet">
<metadata>
Created by potrace 1.11, written by Peter Selinger 2001-2013
</metadata>
<g transform="translate(0.000000,668.000000) scale(0.100000,-0.100000)"
fill="#000000" stroke="none">
<path d="M2456 6382 c-4 -6 -46 -242 -83 -461 -6 -31 -12 -37 -77 -65 -215
-92 -455 -234 -636 -375 -118 -91 -337 -307 -433 -426 -444 -551 -667 -1270
-607 -1955 6 -63 12 -124 15 -136 4 -17 -34 -56 -190 -199 l-194 -178 16 -31
c9 -17 101 -179 206 -361 467 -810 660 -1141 671 -1153 10 -11 56 3 249 73
l235 85 69 -52 c384 -291 853 -478 1358 -539 148 -18 474 -15 630 5 463 61
877 220 1242 477 62 43 117 79 122 79 6 0 118 -34 250 -75 131 -41 241 -75
244 -75 3 0 23 30 44 68 372 641 829 1433 841 1459 10 20 12 36 6 42 -5 4 -92
77 -193 161 l-183 153 5 42 c55 394 17 833 -104 1209 -238 748 -776 1352
-1487 1672 -53 24 -99 49 -102 56 -4 7 -31 122 -60 255 -47 211 -56 242 -74
247 -33 9 -1774 7 -1780 -2z m1704 -386 c46 -198 59 -241 75 -247 409 -159
761 -396 1022 -688 364 -408 577 -872 648 -1414 27 -211 16 -645 -21 -793 -4
-17 25 -47 172 -170 98 -82 182 -152 186 -155 8 -5 -711 -1263 -746 -1306 0
-1 -104 30 -231 68 -126 38 -234 69 -239 69 -5 0 -53 -34 -108 -76 -363 -279
-838 -466 -1305 -515 -170 -17 -527 -7 -678 20 -441 79 -808 239 -1160 506
-66 51 -127 90 -135 87 -8 -2 -106 -37 -218 -78 -112 -41 -207 -74 -212 -74
-11 0 -30 32 -442 745 l-318 550 57 55 c32 30 114 107 182 171 l123 116 -16
117 c-21 156 -22 491 0 658 101 799 552 1489 1243 1901 138 83 209 118 371
182 l105 42 38 214 c21 118 40 224 42 237 l5 22 752 -2 753 -3 55 -239z"/>
<path d="M3238 5278 l-3 -143 -80 -8 c-303 -30 -637 -162 -893 -355 -485 -364
-766 -985 -714 -1575 21 -226 73 -433 157 -614 27 -59 32 -79 23 -85 -7 -5
-68 -40 -135 -79 -68 -39 -125 -73 -127 -77 -2 -4 20 -49 51 -100 l54 -93 32
19 c65 39 246 142 250 142 2 0 28 -33 58 -73 341 -460 937 -741 1514 -713 390
18 775 164 1070 406 92 76 237 227 304 318 30 39 56 72 59 72 5 0 161 -89 249
-142 l31 -18 51 87 c28 49 51 93 51 100 0 6 -55 43 -122 82 -68 39 -129 74
-135 79 -10 6 -1 38 37 129 54 131 90 254 117 403 24 135 24 449 -1 585 -73
398 -247 729 -528 1001 -105 102 -161 147 -268 217 -238 154 -533 259 -800
285 l-75 7 -3 143 -3 142 -109 0 -109 0 -3 -142z m2 -798 l0 -320 -112 0 c-62
0 -118 -4 -125 -8 -8 -5 41 -110 165 -349 97 -189 182 -343 187 -344 12 -3
368 681 360 690 -4 3 -62 7 -131 9 l-124 4 0 319 0 319 36 0 c54 0 228 -37
326 -70 106 -36 267 -116 368 -183 109 -73 314 -281 390 -397 273 -414 323
-915 138 -1381 -17 -44 -35 -79 -41 -79 -11 0 -495 275 -511 291 -5 5 15 50
47 109 32 55 57 104 57 109 0 7 -190 18 -644 38 l-148 6 13 -25 c26 -48 414
-648 419 -648 3 0 28 42 57 93 29 51 58 100 66 110 12 17 31 8 270 -130 141
-81 257 -152 257 -156 1 -38 -254 -296 -370 -374 -349 -235 -771 -315 -1175
-221 -187 43 -396 140 -547 253 -124 94 -337 321 -317 339 7 6 510 296 514
296 1 0 29 -45 60 -100 32 -55 61 -102 65 -105 7 -5 42 48 329 494 l113 174
-129 -6 c-70 -3 -246 -12 -390 -18 -145 -7 -267 -16 -273 -19 -7 -4 10 -43 45
-103 31 -54 58 -103 61 -111 4 -9 -39 -40 -138 -96 -79 -46 -196 -114 -261
-151 l-118 -69 -30 65 c-144 317 -164 716 -53 1052 37 113 116 273 182 372 72
108 231 274 341 357 103 77 285 172 406 213 106 35 262 69 323 70 l42 1 0
-320z"/>
<path d="M4702 2031 c-74 -83 -87 -111 -72 -157 23 -70 112 -97 167 -50 23 20
25 26 14 39 -12 15 -15 14 -40 -4 -22 -16 -32 -18 -53 -10 -56 21 -60 76 -9
125 l30 29 57 -52 c32 -28 61 -51 65 -51 4 0 12 6 18 14 9 11 -1 25 -51 69
-59 53 -61 57 -45 75 13 14 14 21 5 30 -7 7 -15 12 -18 12 -3 0 -34 -31 -68
-69z"/>
<path d="M1865 2066 c-12 -18 -15 -36 -10 -70 9 -54 -4 -60 -45 -21 -24 23
-28 24 -40 10 -11 -14 -8 -21 20 -50 36 -37 65 -44 96 -21 15 12 19 25 17 67
-3 68 4 76 37 44 23 -22 29 -24 39 -12 9 12 6 21 -15 46 -33 39 -76 42 -99 7z"/>
<path d="M4894 2009 c-8 -14 21 -43 35 -35 19 12 13 46 -8 46 -11 0 -23 -5
-27 -11z"/>
<path d="M1965 1966 c-63 -27 -85 -108 -44 -160 11 -14 24 -26 29 -26 16 0 20
33 5 50 -15 17 -21 60 -8 60 4 0 19 -11 33 -25 25 -24 28 -24 41 -9 11 14 10
19 -14 36 -15 11 -27 24 -27 29 0 14 44 11 66 -5 13 -10 23 -11 31 -4 19 15
16 24 -11 41 -36 24 -68 28 -101 13z"/>
<path d="M4551 1879 c-46 -50 -27 -129 41 -162 33 -16 40 -16 71 -3 42 17 53
32 36 52 -10 13 -14 13 -29 -1 -17 -15 -51 -20 -63 -9 -3 3 8 18 25 33 26 23
28 28 15 39 -12 10 -20 8 -46 -14 l-31 -26 0 26 c0 15 9 34 20 43 14 13 17 20
8 30 -15 18 -24 16 -47 -8z"/>
<path d="M2073 1865 c-36 -15 -63 -60 -63 -104 0 -28 41 -91 60 -91 17 0 20
34 5 51 -25 27 -16 80 18 99 25 14 30 13 57 -2 24 -14 31 -14 40 -3 16 19 5
34 -36 51 -40 17 -41 17 -81 -1z"/>
<path d="M2166 1763 c-25 -38 -46 -78 -46 -91 0 -33 43 -72 80 -72 26 0 37 10
80 68 27 37 50 72 50 78 0 15 -31 28 -39 16 -3 -4 -21 -30 -40 -57 -40 -57
-49 -65 -68 -58 -23 9 -14 40 27 99 31 44 37 60 29 71 -6 7 -15 13 -19 13 -4
0 -29 -30 -54 -67z"/>
<path d="M4445 1799 c-22 -17 -47 -34 -55 -39 -24 -14 6 -43 31 -29 16 8 24 3
51 -37 62 -89 65 -91 82 -74 15 14 12 22 -29 80 -42 60 -44 65 -28 82 14 16
15 20 2 33 -12 12 -19 10 -54 -16z"/>
<path d="M4293 1700 c-37 -22 -53 -48 -53 -85 0 -58 55 -115 110 -115 62 0
116 67 104 129 -8 40 -66 91 -102 91 -15 0 -41 -9 -59 -20z m106 -61 c30 -53
-19 -112 -73 -88 -66 31 -49 123 23 117 26 -2 39 -10 50 -29z"/>
<path d="M2328 1693 c-8 -10 -31 -46 -51 -80 -35 -61 -36 -63 -16 -74 12 -6
22 -9 23 -7 2 2 20 34 41 71 26 47 42 67 54 65 25 -5 20 -43 -6 -43 -32 -1
-38 -12 -23 -40 11 -21 10 -28 -5 -51 -17 -26 -17 -28 1 -41 16 -12 21 -10 41
24 13 21 21 44 18 50 -2 7 7 24 20 37 31 31 32 56 2 84 -28 27 -78 29 -99 5z"/>
<path d="M4116 1619 c-18 -14 -26 -30 -26 -50 0 -27 -2 -29 -15 -15 -25 24
-52 28 -84 11 -33 -17 -47 -50 -36 -87 25 -78 48 -128 61 -128 25 0 26 25 5
81 -28 73 -28 101 1 97 27 -4 37 -37 14 -50 -18 -10 -19 -17 -7 -37 12 -19 49
3 65 40 l12 29 24 -50 c25 -53 27 -55 49 -41 12 8 9 21 -18 80 -32 69 -33 91
-6 91 21 0 28 -19 15 -35 -16 -19 -5 -49 16 -41 10 4 22 -6 35 -29 22 -37 26
-40 47 -26 11 7 11 15 -2 45 -8 20 -22 39 -31 42 -8 4 -15 18 -15 35 0 29 -30
59 -61 59 -9 0 -28 -9 -43 -21z"/>
<path d="M2450 1603 c-22 -20 -33 -40 -37 -70 -5 -39 -3 -45 32 -80 35 -35 38
-36 51 -19 12 17 10 22 -16 46 -27 25 -39 50 -25 50 4 0 19 -7 36 -15 16 -9
34 -13 39 -10 19 12 10 33 -20 45 -41 17 -32 35 18 35 49 0 64 12 38 31 -32
23 -82 17 -116 -13z"/>
<path d="M2737 1500 c-62 -49 -53 -143 18 -177 31 -15 37 -15 45 -3 14 22 13
26 -15 38 -14 7 -31 23 -37 37 -10 22 -8 30 9 53 17 21 28 27 56 25 27 -2 36
2 40 17 9 35 -74 43 -116 10z"/>
<path d="M2904 1491 c-36 -16 -64 -60 -64 -103 0 -55 51 -108 105 -108 54 0
105 53 105 109 0 74 -80 130 -146 102z m92 -66 c33 -50 -15 -116 -69 -96 -68
26 -53 121 19 121 25 0 38 -7 50 -25z"/>
<path d="M3734 1487 c-3 -8 0 -35 6 -62 6 -26 9 -49 8 -51 -2 -2 -23 22 -46
52 -23 29 -48 54 -56 54 -32 0 -36 -24 -18 -121 16 -83 20 -94 37 -91 27 5 26
2 14 66 -6 32 -9 60 -6 62 2 2 25 -23 50 -56 26 -33 51 -60 56 -60 30 0 29 60
-4 198 -6 24 -33 30 -41 9z"/>
<path d="M3082 1453 c-5 -10 -13 -57 -17 -104 -6 -76 -5 -87 11 -93 24 -9 26
-5 32 69 2 36 8 63 12 58 4 -4 18 -37 31 -71 12 -35 29 -66 37 -70 21 -8 42
26 42 69 0 70 11 100 34 97 20 -3 21 -8 19 -85 -2 -82 -2 -83 22 -83 23 0 24
3 27 83 2 65 6 82 18 82 12 0 16 -18 20 -80 5 -73 7 -80 27 -83 21 -3 22 0 25
85 3 80 5 88 23 88 14 0 21 -8 23 -27 3 -23 -1 -28 -17 -28 -14 0 -21 -6 -21
-20 0 -15 7 -20 25 -20 22 0 25 -4 25 -35 0 -31 3 -35 25 -35 l25 0 -6 78 c-4
42 -13 87 -20 99 -20 31 -61 40 -96 20 -15 -9 -28 -12 -28 -7 0 5 -41 10 -90
12 l-90 3 -5 -30 c-3 -16 -6 -46 -7 -65 l-3 -35 -19 50 c-34 92 -63 118 -84
78z"/>
<path d="M3566 1462 c-17 -4 -18 -11 -12 -80 10 -112 16 -133 35 -130 13 3 16
16 14 75 -4 104 -14 139 -37 135z"/>
<path d="M2534 1425 c-4 -9 -2 -21 4 -27 15 -15 44 -1 40 19 -4 23 -36 29 -44
8z"/>
<path d="M3844 1335 c-4 -9 -2 -21 4 -27 15 -15 44 -1 40 19 -4 23 -36 29 -44
8z"/>
</g>
</svg>
